<?xml version="1.0" encoding="UTF-8" standalone="no"?>
<svg xmlns="http://www.w3.org/2000/svg" width="456" height="456" viewBox="0 0 456 456">
  <rect width="456" height="456" rx="100" fill="#FF3B30"/>
  <rect x="80" y="110" width="296" height="260" rx="28" fill="#FFFFFF"/>
  <rect x="80" y="110" width="296" height="60" rx="28" fill="#FF3B30"/>
  <rect x="80" y="150" width="296" height="20" fill="#FF3B30"/>
  <circle cx="150" cy="90" r="16" fill="#FFFFFF"/>
  <circle cx="306" cy="90" r="16" fill="#FFFFFF"/>
  <rect x="135" y="60" width="30" height="60" rx="8" fill="#FFFFFF"/>
  <rect x="291" y="60" width="30" height="60" rx="8" fill="#FFFFFF"/>
  <g fill="#8E8E93">
    <rect x="110" y="200" width="40" height="6"/>
    <rect x="170" y="200" width="40" height="6"/>
    <rect x="230" y="200" width="40" height="6"/>
    <rect x="290" y="200" width="40" height="6"/>
    <rect x="110" y="230" width="40" height="6"/>
    <rect x="170" y="230" width="40" height="6"/>
    <rect x="230" y="230" width="40" height="6"/>
    <rect x="290" y="230" width="40" height="6"/>
    <rect x="110" y="260" width="40" height="6"/>
    <rect x="170" y="260" width="40" height="6"/>
    <rect x="230" y="260" width="40" height="6"/>
    <rect x="290" y="260" width="40" height="6"/>
  </g>
</svg>
